<svg id="visual" viewBox="0 0 960 540" width="960" height="540" xmlns="http://www.w3.org/2000/svg" xmlns:xlink="http://www.w3.org/1999/xlink" version="1.1"><path d="M0 119L26.7 113C53.3 107 106.7 95 160 94.5C213.3 94 266.7 105 320 106.5C373.3 108 426.7 100 480 103C533.3 106 586.7 120 640 119.2C693.3 118.3 746.7 102.7 800 97C853.3 91.3 906.7 95.7 933.3 97.8L960 100L960 0L933.3 0C906.7 0 853.3 0 800 0C746.7 0 693.3 0 640 0C586.7 0 533.3 0 480 0C426.7 0 373.3 0 320 0C266.7 0 213.3 0 160 0C106.7 0 53.3 0 26.7 0L0 0Z" fill="#1ba488" stroke-linecap="round" stroke-linejoin="miter"></path></svg>