<svg id="visual" viewBox="0 0 900 600" width="900" height="600" xmlns="http://www.w3.org/2000/svg" xmlns:xlink="http://www.w3.org/1999/xlink" version="1.1"><path d="M0 103L30 103C60 103 120 103 180 109C240 115 300 127 360 132.3C420 137.7 480 136.3 540 132C600 127.7 660 120.3 720 115.5C780 110.7 840 108.3 870 107.2L900 106L900 0L870 0C840 0 780 0 720 0C660 0 600 0 540 0C480 0 420 0 360 0C300 0 240 0 180 0C120 0 60 0 30 0L0 0Z" fill="#1ba488" stroke-linecap="round" stroke-linejoin="miter"></path></svg>